<svg width="18" height="12" viewBox="0 0 18 12" fill="none" xmlns="http://www.w3.org/2000/svg">
<path d="M14.2 4.5749L11.3 1.6749C11.1166 1.49157 11.025 1.25824 11.025 0.974902C11.025 0.691568 11.1166 0.458236 11.3 0.274902C11.4833 0.0915689 11.7166 -9.82285e-05 12 -9.82285e-05C12.2833 -9.82285e-05 12.5166 0.0915689 12.7 0.274902L17.3 4.8749C17.4 4.9749 17.4708 5.08324 17.5125 5.1999C17.5541 5.31657 17.575 5.44157 17.575 5.5749C17.575 5.70824 17.5541 5.83324 17.5125 5.9499C17.4708 6.06657 17.4 6.1749 17.3 6.2749L12.7 10.8749C12.5166 11.0582 12.2833 11.1499 12 11.1499C11.7166 11.1499 11.4833 11.0582 11.3 10.8749C11.1166 10.6916 11.025 10.4582 11.025 10.1749C11.025 9.89157 11.1166 9.65824 11.3 9.4749L14.2 6.5749H0.99995C0.716618 6.5749 0.479118 6.47907 0.287451 6.2874C0.0957832 6.09574 -4.95911e-05 5.85824 -4.95911e-05 5.5749C-4.95911e-05 5.29157 0.0957832 5.05407 0.287451 4.8624C0.479118 4.67074 0.716618 4.5749 0.99995 4.5749H14.2Z" fill="black"/>
</svg>
