<svg width="25" height="25" viewBox="0 0 25 25" fill="none" xmlns="http://www.w3.org/2000/svg">
<path fill-rule="evenodd" clip-rule="evenodd" d="M0.214588 0.55C0.329014 0.380714 0.483194 0.242059 0.66363 0.146175C0.844067 0.0502904 1.04526 0.00010077 1.24959 9.81375e-08H14.9996C15.2494 0.000158194 15.4934 0.0751437 15.7001 0.215286C15.9069 0.355427 16.0669 0.554298 16.1596 0.78625L17.0983 3.13125L17.5233 1.005C17.58 0.721527 17.7332 0.466455 17.9567 0.283212C18.1803 0.0999696 18.4605 -0.000114403 18.7496 9.81375e-08H23.7496C23.9345 0.00011173 24.117 0.0412254 24.284 0.120379C24.4511 0.199533 24.5985 0.314757 24.7157 0.457748C24.8329 0.60074 24.9169 0.76794 24.9616 0.947301C25.0064 1.12666 25.0108 1.31372 24.9746 1.495L23.7496 7.625V17.5C23.7496 18.163 23.4862 18.7989 23.0174 19.2678C22.5485 19.7366 21.9126 20 21.2496 20H4.99959C4.33655 20 3.70066 19.7366 3.23182 19.2678C2.76298 18.7989 2.49959 18.163 2.49959 17.5V7.74125L0.0895885 1.7125C0.0136533 1.52288 -0.0146571 1.31754 0.00713407 1.11445C0.0289252 0.911354 0.100154 0.716694 0.214588 0.5475V0.55ZM4.99959 8.75V17.5H16.2496V8.75H4.99959ZM18.7496 8.75V17.5H21.2496V8.75H18.7496ZM21.4746 6.25L22.2246 2.5H19.7746L19.0246 6.25H21.4746ZM15.6533 6.25L14.1533 2.5H3.09584L4.59584 6.25H15.6533ZM11.2496 15C11.2496 14.6685 11.3813 14.3505 11.6157 14.1161C11.8501 13.8817 12.1681 13.75 12.4996 13.75H13.7496C14.0811 13.75 14.3991 13.8817 14.6335 14.1161C14.8679 14.3505 14.9996 14.6685 14.9996 15C14.9996 15.3315 14.8679 15.6495 14.6335 15.8839C14.3991 16.1183 14.0811 16.25 13.7496 16.25H12.4996C12.1681 16.25 11.8501 16.1183 11.6157 15.8839C11.3813 15.6495 11.2496 15.3315 11.2496 15Z" fill="#EEF4FF"/>
</svg>
