<svg width="24" height="24" viewBox="0 0 24 24" fill="none" xmlns="http://www.w3.org/2000/svg">
<path d="M21.75 12.0003C21.7469 14.3833 20.8726 16.6829 19.2917 18.4659C17.7109 20.249 15.5326 21.3925 13.1671 21.681C13.1145 21.6869 13.0611 21.6817 13.0107 21.6655C12.9602 21.6493 12.9137 21.6227 12.8743 21.5872C12.8348 21.5518 12.8034 21.5084 12.782 21.4599C12.7605 21.4114 12.7496 21.359 12.75 21.306V14.2503H15C15.1028 14.2506 15.2045 14.2297 15.2989 14.1889C15.3933 14.1481 15.4783 14.0884 15.5487 14.0134C15.619 13.9384 15.6732 13.8498 15.7078 13.7529C15.7424 13.6561 15.7568 13.5532 15.75 13.4507C15.7334 13.2578 15.6444 13.0784 15.5009 12.9484C15.3574 12.8185 15.1701 12.7477 14.9765 12.7503H12.75V10.5003C12.75 10.1025 12.908 9.72099 13.1893 9.43968C13.4706 9.15838 13.8521 9.00034 14.25 9.00034H15.75C15.8528 9.00057 15.9545 8.97965 16.0489 8.93889C16.1433 8.89813 16.2283 8.8384 16.2987 8.76341C16.369 8.68841 16.4232 8.59976 16.4578 8.50295C16.4924 8.40614 16.5068 8.30325 16.5 8.20065C16.4834 8.00747 16.3941 7.82776 16.2502 7.69779C16.1063 7.56782 15.9185 7.49726 15.7246 7.50034H14.25C13.4543 7.50034 12.6912 7.81641 12.1286 8.37902C11.566 8.94163 11.25 9.70469 11.25 10.5003V12.7503H8.99996C8.89714 12.7501 8.79538 12.771 8.70099 12.8118C8.60659 12.8526 8.52159 12.9123 8.45126 12.9873C8.38092 13.0623 8.32676 13.1509 8.29213 13.2477C8.2575 13.3445 8.24315 13.4474 8.24996 13.55C8.26655 13.7432 8.35579 13.9229 8.49968 14.0529C8.64357 14.1829 8.8314 14.2534 9.02527 14.2503H11.25V21.3078C11.2503 21.3608 11.2394 21.4131 11.218 21.4616C11.1967 21.51 11.1653 21.5533 11.126 21.5887C11.0866 21.6241 11.0403 21.6508 10.9899 21.6671C10.9395 21.6833 10.8863 21.6887 10.8337 21.6828C8.40498 21.3871 6.1758 20.1903 4.5874 18.3293C2.99901 16.4683 2.16716 14.0788 2.25652 11.6338C2.44402 6.57128 6.54464 2.45565 11.6109 2.25878C12.9225 2.20797 14.231 2.42223 15.4579 2.88875C16.6848 3.35526 17.8051 4.06444 18.7516 4.97387C19.6981 5.8833 20.4515 6.9743 20.9667 8.1816C21.4819 9.3889 21.7483 10.6877 21.75 12.0003Z" fill="#A4A7AE"/>
</svg>
