<svg width="25" height="18" viewBox="0 0 25 18" fill="none" xmlns="http://www.w3.org/2000/svg">
<path d="M17.1875 11.875C16.9389 11.875 16.7004 11.9738 16.5246 12.1496C16.3488 12.3254 16.25 12.5639 16.25 12.8125C16.25 13.0611 16.3488 13.2996 16.5246 13.4754C16.7004 13.6512 16.9389 13.75 17.1875 13.75H20.3125C20.5611 13.75 20.7996 13.6512 20.9754 13.4754C21.1512 13.2996 21.25 13.0611 21.25 12.8125C21.25 12.5639 21.1512 12.3254 20.9754 12.1496C20.7996 11.9738 20.5611 11.875 20.3125 11.875H17.1875ZM0 4.0625C0 2.98506 0.428012 1.95175 1.18988 1.18988C1.95175 0.428012 2.98506 0 4.0625 0H20.9375C21.471 0 21.9993 0.10508 22.4922 0.30924C22.985 0.513399 23.4329 0.812641 23.8101 1.18988C24.1874 1.56712 24.4866 2.01496 24.6908 2.50785C24.8949 3.00073 25 3.529 25 4.0625V13.4375C25 13.971 24.8949 14.4993 24.6908 14.9922C24.4866 15.485 24.1874 15.9329 23.8101 16.3101C23.4329 16.6874 22.985 16.9866 22.4922 17.1908C21.9993 17.3949 21.471 17.5 20.9375 17.5H4.0625C2.98506 17.5 1.95175 17.072 1.18988 16.3101C0.428012 15.5483 0 14.5149 0 13.4375V4.0625ZM23.125 5.625V4.0625C23.125 3.48234 22.8945 2.92594 22.4843 2.5157C22.0741 2.10547 21.5177 1.875 20.9375 1.875H4.0625C3.48234 1.875 2.92594 2.10547 2.5157 2.5157C2.10547 2.92594 1.875 3.48234 1.875 4.0625V5.625H23.125ZM1.875 7.5V13.4375C1.875 14.645 2.855 15.625 4.0625 15.625H20.9375C21.5177 15.625 22.0741 15.3945 22.4843 14.9843C22.8945 14.5741 23.125 14.0177 23.125 13.4375V7.5H1.875Z" fill="#EEF4FF"/>
</svg>
