<svg width="30" height="28" viewBox="0 0 30 28" fill="none" xmlns="http://www.w3.org/2000/svg">
<path d="M5.625 20.625H7.5V22.5H3.75V3.75H1.875V24.375H7.5V26.25H0V1.875H3.75V0H9.375C10.2344 0 11.0596 0.131836 11.8506 0.395508C12.6416 0.65918 13.3789 1.05469 14.0625 1.58203C14.7363 1.05469 15.4688 0.65918 16.2598 0.395508C17.0508 0.131836 17.8809 0 18.75 0H24.375V1.875H28.125V13.8721L26.25 13.0225V3.75H24.375V12.1729L22.5 11.3086V1.875H18.75C18.0566 1.875 17.3926 1.99219 16.7578 2.22656C16.123 2.46094 15.5371 2.80762 15 3.2666V12.1729L13.125 13.0225V3.2666C12.5977 2.81738 12.0166 2.47559 11.3818 2.24121C10.7471 2.00684 10.0781 1.88477 9.375 1.875H5.625V20.625ZM26.25 24.3604L19.6875 27.6562L13.125 24.3604C13.125 24.0088 13.1299 23.6377 13.1396 23.2471C13.1494 22.8564 13.1885 22.4609 13.2568 22.0605C13.3252 21.6602 13.4229 21.2842 13.5498 20.9326C13.6768 20.5811 13.8525 20.2539 14.0771 19.9512L11.25 18.6621V27.1875H9.375V17.8125L19.6875 13.125L30 17.8125L25.2979 19.9512L25.415 20.1123C25.6201 20.415 25.7764 20.7422 25.8838 21.0938C25.9912 21.4453 26.0742 21.8018 26.1328 22.1631C26.1914 22.5244 26.2256 22.8955 26.2354 23.2764C26.2451 23.6572 26.25 24.0186 26.25 24.3604ZM19.6875 15.1758L13.9014 17.8125L19.6875 20.4492L25.4736 17.8125L19.6875 15.1758ZM19.6875 25.5615L24.375 23.2031C24.3652 22.9492 24.3457 22.7197 24.3164 22.5146C24.2871 22.3096 24.2334 22.1094 24.1553 21.9141C24.0771 21.7188 23.999 21.5283 23.9209 21.3428C23.8428 21.1572 23.7305 20.9521 23.584 20.7275L19.6875 22.5L15.791 20.7275C15.6445 20.9619 15.5273 21.1719 15.4395 21.3574C15.3516 21.543 15.2734 21.7285 15.2051 21.9141C15.1367 22.0996 15.0928 22.2949 15.0732 22.5C15.0537 22.7051 15.0342 22.9443 15.0146 23.2178L19.6875 25.5615Z" fill="#EEF4FF"/>
</svg>
