<svg width="26" height="28" viewBox="0 0 26 28" fill="none" xmlns="http://www.w3.org/2000/svg">
<path fill-rule="evenodd" clip-rule="evenodd" d="M20.3747 19.7484C20.6813 19.595 21.0335 19.5595 21.3646 19.6485C21.6956 19.7375 21.9825 19.9449 22.1709 20.2314L22.2521 20.3742L25.052 25.9742C25.152 26.1739 25.2026 26.3946 25.1999 26.6179C25.1971 26.8412 25.141 27.0606 25.0362 27.2577C24.9313 27.4549 24.7809 27.6241 24.5973 27.7513C24.4138 27.8785 24.2025 27.9599 23.9811 27.9888L23.8005 28H1.40045C1.17711 28.0001 0.956991 27.9467 0.758477 27.8444C0.559963 27.742 0.388815 27.5937 0.259324 27.4117C0.129833 27.2297 0.0457583 27.0194 0.0141192 26.7983C-0.01752 26.5772 0.00419513 26.3518 0.0774514 26.1408L0.147451 25.9728L2.94745 20.3728C3.10439 20.0484 3.38036 19.797 3.71795 19.671C4.05554 19.5449 4.42873 19.5539 4.75988 19.696C5.09102 19.8381 5.35461 20.1025 5.49579 20.434C5.63697 20.7656 5.64487 21.1388 5.51785 21.476L5.45205 21.6258L3.66565 25.2H21.5353L19.7489 21.6258C19.5831 21.2938 19.5558 20.9096 19.6732 20.5576C19.7905 20.2056 20.0428 19.9145 20.3747 19.7484ZM12.6005 0C15.1996 0 17.6922 1.0325 19.5301 2.87035C21.368 4.70821 22.4005 7.20088 22.4005 9.8C22.4005 13.1348 20.5959 15.8438 18.7283 17.766C17.6967 18.8139 16.5626 19.7557 15.3431 20.5772L14.8209 20.9216L14.3561 21.2142L14.1475 21.3402L13.7877 21.5474C13.0485 21.9674 12.1525 21.9674 11.4133 21.5474L11.0535 21.3388L10.6195 21.0742L10.3801 20.9216L9.85785 20.5772C8.63826 19.7557 7.50418 18.8139 6.47265 17.766C4.60505 15.8438 2.80045 13.1348 2.80045 9.8C2.80045 7.20088 3.83295 4.70821 5.6708 2.87035C7.50866 1.0325 10.0013 0 12.6005 0ZM12.6005 2.8C10.7439 2.8 8.96346 3.5375 7.6507 4.85025C6.33795 6.16301 5.60045 7.94348 5.60045 9.8C5.60045 12.0904 6.84645 14.133 8.48025 15.8144C9.463 16.807 10.549 17.6917 11.7199 18.4534L12.1959 18.7572C12.3433 18.8477 12.4782 18.9289 12.6005 19.0008L13.0065 18.7572L13.4811 18.4534C14.6519 17.6917 15.7379 16.807 16.7207 15.8144C18.3545 14.1344 19.6005 12.0904 19.6005 9.8C19.6005 7.94348 18.863 6.16301 17.5502 4.85025C16.2374 3.5375 14.457 2.8 12.6005 2.8ZM12.6005 5.6C13.7144 5.6 14.7826 6.0425 15.5703 6.83015C16.358 7.6178 16.8005 8.68609 16.8005 9.8C16.8005 10.9139 16.358 11.9822 15.5703 12.7698C14.7826 13.5575 13.7144 14 12.6005 14C11.4865 14 10.4183 13.5575 9.6306 12.7698C8.84295 11.9822 8.40045 10.9139 8.40045 9.8C8.40045 8.68609 8.84295 7.6178 9.6306 6.83015C10.4183 6.0425 11.4865 5.6 12.6005 5.6ZM12.6005 8.4C12.2291 8.4 11.8731 8.5475 11.6105 8.81005C11.348 9.0726 11.2005 9.4287 11.2005 9.8C11.2005 10.1713 11.348 10.5274 11.6105 10.7899C11.8731 11.0525 12.2291 11.2 12.6005 11.2C12.9718 11.2 13.3278 11.0525 13.5904 10.7899C13.853 10.5274 14.0005 10.1713 14.0005 9.8C14.0005 9.4287 13.853 9.0726 13.5904 8.81005C13.3278 8.5475 12.9718 8.4 12.6005 8.4Z" fill="#EEF4FF"/>
</svg>
