<svg width="35" height="26" viewBox="0 0 35 26" fill="none" xmlns="http://www.w3.org/2000/svg">
<path d="M20.6818 14.625C19.3561 14.625 18.2292 14.151 17.3011 13.2031C16.3731 12.2552 15.9091 11.1042 15.9091 9.74999C15.9091 8.39583 16.3731 7.24479 17.3011 6.29687C18.2292 5.34895 19.3561 4.875 20.6818 4.875C22.0076 4.875 23.1345 5.34895 24.0625 6.29687C24.9905 7.24479 25.4545 8.39583 25.4545 9.74999C25.4545 11.1042 24.9905 12.2552 24.0625 13.2031C23.1345 14.151 22.0076 14.625 20.6818 14.625ZM9.54545 19.5C8.67045 19.5 7.92167 19.182 7.29909 18.5461C6.67651 17.9102 6.3647 17.1448 6.36364 16.25V3.25C6.36364 2.35625 6.67545 1.59142 7.29909 0.955499C7.92273 0.319583 8.67151 0.00108333 9.54545 0H31.8182C32.6932 0 33.4425 0.318499 34.0661 0.955499C34.6898 1.5925 35.0011 2.35733 35 3.25V16.25C35 17.1437 34.6887 17.9091 34.0661 18.5461C33.4436 19.1831 32.6942 19.5011 31.8182 19.5H9.54545ZM12.7273 16.25H28.6364C28.6364 15.3562 28.9482 14.5914 29.5718 13.9555C30.1955 13.3196 30.9442 13.0011 31.8182 13V6.49999C30.9432 6.49999 30.1944 6.18204 29.5718 5.54612C28.9492 4.9102 28.6374 4.14483 28.6364 3.25H12.7273C12.7273 4.14375 12.416 4.90912 11.7934 5.54612C11.1708 6.18312 10.4215 6.50108 9.54545 6.49999V13C10.4205 13 11.1698 13.3185 11.7934 13.9555C12.417 14.5925 12.7283 15.3573 12.7273 16.25ZM28.6364 26H3.18182C2.30682 26 1.55803 25.682 0.935455 25.0461C0.312879 24.4102 0.00106061 23.6448 0 22.75V6.49999C0 6.03958 0.152727 5.65391 0.458182 5.343C0.763636 5.03208 1.14121 4.87608 1.59091 4.875C2.04061 4.87391 2.41871 5.02991 2.72523 5.343C3.03174 5.65608 3.18394 6.04175 3.18182 6.49999V22.75H28.6364C29.0871 22.75 29.4652 22.906 29.7707 23.218C30.0761 23.53 30.2283 23.9156 30.2273 24.375C30.2262 24.8343 30.0735 25.2205 29.7691 25.5336C29.4647 25.8467 29.0871 26.0021 28.6364 26Z" fill="#EEF4FF"/>
</svg>
