<svg width="24" height="24" viewBox="0 0 24 24" fill="none" xmlns="http://www.w3.org/2000/svg">
<path d="M14.3044 13.6157L16.4606 14.692C16.3584 15.2027 16.0822 15.6621 15.679 15.9919C15.2759 16.3217 14.7708 16.5014 14.25 16.5004C12.4604 16.4984 10.7447 15.7866 9.47922 14.5212C8.21378 13.2557 7.50198 11.54 7.5 9.7504C7.49985 9.2302 7.67997 8.72602 8.00968 8.32365C8.3394 7.92129 8.79835 7.64561 9.30844 7.54352L10.3847 9.69977L9.46875 11.0629C9.40031 11.1656 9.35825 11.2835 9.34631 11.4064C9.33437 11.5292 9.35292 11.653 9.40031 11.767C9.93692 13.0423 10.9515 14.0569 12.2269 14.5935C12.3411 14.643 12.466 14.6633 12.59 14.6525C12.7141 14.6417 12.8335 14.6001 12.9375 14.5316L14.3044 13.6157ZM21.75 12.0004C21.7504 13.6837 21.3149 15.3384 20.486 16.8035C19.6572 18.2686 18.4631 19.4942 17.02 20.3609C15.577 21.2276 13.9341 21.7059 12.2514 21.7493C10.5686 21.7927 8.9033 21.3997 7.4175 20.6085L4.22531 21.6726C3.96102 21.7607 3.6774 21.7735 3.40624 21.7095C3.13509 21.6455 2.88711 21.5073 2.69011 21.3103C2.49311 21.1133 2.35486 20.8653 2.29087 20.5942C2.22688 20.323 2.23967 20.0394 2.32781 19.7751L3.39187 16.5829C2.69639 15.2753 2.30793 13.8264 2.256 12.3463C2.20406 10.8662 2.49001 9.39365 3.09213 8.04052C3.69425 6.68739 4.59672 5.48922 5.73105 4.53695C6.86537 3.58468 8.20173 2.90334 9.63869 2.54465C11.0756 2.18596 12.5754 2.15935 14.0242 2.46683C15.473 2.77432 16.8327 3.40782 18.0001 4.31924C19.1675 5.23067 20.1119 6.39607 20.7616 7.72698C21.4114 9.0579 21.7494 10.5193 21.75 12.0004ZM18 14.2504C18.0001 14.1111 17.9614 13.9745 17.8882 13.8559C17.815 13.7373 17.7102 13.6415 17.5856 13.5791L14.5856 12.0791C14.4675 12.0203 14.336 11.9936 14.2043 12.0019C14.0726 12.0101 13.9455 12.0529 13.8356 12.126L12.4584 13.0448C11.8262 12.6972 11.306 12.177 10.9584 11.5448L11.8772 10.1676C11.9503 10.0577 11.9931 9.93056 12.0013 9.79888C12.0096 9.66719 11.9829 9.53567 11.9241 9.41758L10.4241 6.41758C10.3619 6.29202 10.2658 6.18639 10.1467 6.11266C10.0275 6.03892 9.89011 6.00003 9.75 6.0004C8.75544 6.0004 7.80161 6.39548 7.09835 7.09875C6.39509 7.80201 6 8.75583 6 9.7504C6.00248 11.9377 6.87247 14.0346 8.41911 15.5813C9.96575 17.1279 12.0627 17.9979 14.25 18.0004C14.7425 18.0004 15.2301 17.9034 15.6851 17.7149C16.14 17.5265 16.5534 17.2503 16.9017 16.902C17.2499 16.5538 17.5261 16.1404 17.7145 15.6855C17.903 15.2305 18 14.7429 18 14.2504Z" fill="#A4A7AE"/>
</svg>
